<svg width="20" height="20" viewBox="0 0 20 20" fill="none" xmlns="http://www.w3.org/2000/svg">
<path fill-rule="evenodd" clip-rule="evenodd" d="M10.0003 0C4.48015 0 0 4.48 0 10C0 15.52 4.48015 20 10.0003 20C15.5205 20 20.0007 15.52 20.0007 10C20.0007 4.48 15.5205 0 10.0003 0ZM10.0002 3.00049C11.6602 3.00049 13.0003 4.34049 13.0003 6.00049C13.0003 7.66049 11.6602 9.00049 10.0002 9.00049C8.34011 9.00049 7.00007 7.66049 7.00007 6.00049C7.00007 4.34049 8.34011 3.00049 10.0002 3.00049ZM10.0016 17.1999C7.50155 17.1999 5.29148 15.9199 4.00143 13.9799C4.03143 11.9899 8.00156 10.8999 10.0016 10.8999C11.9917 10.8999 15.9718 11.9899 16.0018 13.9799C14.7118 15.9199 12.5017 17.1999 10.0016 17.1999Z" fill="#7800FD"/>
<mask id="mask0_515_650" style="mask-type:alpha" maskUnits="userSpaceOnUse" x="0" y="0" width="21" height="20">
<path fill-rule="evenodd" clip-rule="evenodd" d="M10.0003 0C4.48015 0 0 4.48 0 10C0 15.52 4.48015 20 10.0003 20C15.5205 20 20.0007 15.52 20.0007 10C20.0007 4.48 15.5205 0 10.0003 0ZM10.0002 3.00049C11.6602 3.00049 13.0003 4.34049 13.0003 6.00049C13.0003 7.66049 11.6602 9.00049 10.0002 9.00049C8.34011 9.00049 7.00007 7.66049 7.00007 6.00049C7.00007 4.34049 8.34011 3.00049 10.0002 3.00049ZM10.0016 17.1999C7.50155 17.1999 5.29148 15.9199 4.00143 13.9799C4.03143 11.9899 8.00156 10.8999 10.0016 10.8999C11.9917 10.8999 15.9718 11.9899 16.0018 13.9799C14.7118 15.9199 12.5017 17.1999 10.0016 17.1999Z" fill="white"/>
</mask>
<g mask="url(#mask0_515_650)">
</g>
</svg>
