<svg width="26" height="18" viewBox="0 0 26 18" fill="none" xmlns="http://www.w3.org/2000/svg">
<path fill-rule="evenodd" clip-rule="evenodd" d="M13 1C7.54545 1 2.88727 4.31733 1 9C2.88727 13.6827 7.54545 17 13 17C18.4545 17 23.1127 13.6827 25 9C23.1127 4.31733 18.4545 1 13 1ZM13.0001 14.3333C9.9892 14.3333 7.54557 11.944 7.54557 9C7.54557 6.056 9.9892 3.66667 13.0001 3.66667C16.011 3.66667 18.4546 6.056 18.4546 9C18.4546 11.944 16.011 14.3333 13.0001 14.3333ZM12.9993 5.79997C11.1884 5.79997 9.72656 7.2293 9.72656 8.99996C9.72656 10.7706 11.1884 12.2 12.9993 12.2C14.8102 12.2 16.2721 10.7706 16.2721 8.99996C16.2721 7.2293 14.8102 5.79997 12.9993 5.79997Z" fill="#7800FD"/>
<path d="M1 9L0.536248 8.81309L0.460918 9L0.536248 9.18691L1 9ZM25 9L25.4638 9.18691L25.5391 9L25.4638 8.81309L25 9ZM13 0.5C7.33914 0.5 2.49889 3.94342 0.536248 8.81309L1.46375 9.18691C3.27565 4.69125 7.75177 1.5 13 1.5V0.5ZM0.536248 9.18691C2.49889 14.0566 7.33914 17.5 13 17.5V16.5C7.75177 16.5 3.27565 13.3088 1.46375 8.81309L0.536248 9.18691ZM13 17.5C18.6609 17.5 23.5011 14.0566 25.4638 9.18691L24.5362 8.81309C22.7243 13.3088 18.2482 16.5 13 16.5V17.5ZM25.4638 8.81309C23.5011 3.94342 18.6609 0.5 13 0.5V1.5C18.2482 1.5 22.7243 4.69125 24.5362 9.18691L25.4638 8.81309ZM13.0001 13.8333C10.2547 13.8333 8.04557 11.6573 8.04557 9H7.04557C7.04557 12.2307 9.72371 14.8333 13.0001 14.8333V13.8333ZM8.04557 9C8.04557 6.34267 10.2547 4.16667 13.0001 4.16667V3.16667C9.72371 3.16667 7.04557 5.76932 7.04557 9H8.04557ZM13.0001 4.16667C15.7455 4.16667 17.9546 6.34267 17.9546 9H18.9546C18.9546 5.76932 16.2765 3.16667 13.0001 3.16667V4.16667ZM17.9546 9C17.9546 11.6573 15.7455 13.8333 13.0001 13.8333V14.8333C16.2765 14.8333 18.9546 12.2307 18.9546 9H17.9546ZM12.9993 5.29997C10.9229 5.29997 9.22656 6.94262 9.22656 8.99996H10.2266C10.2266 7.51598 11.4539 6.29997 12.9993 6.29997V5.29997ZM9.22656 8.99996C9.22656 11.0573 10.9229 12.7 12.9993 12.7V11.7C11.4539 11.7 10.2266 10.484 10.2266 8.99996H9.22656ZM12.9993 12.7C15.0757 12.7 16.7721 11.0573 16.7721 8.99996H15.7721C15.7721 10.484 14.5447 11.7 12.9993 11.7V12.7ZM16.7721 8.99996C16.7721 6.94262 15.0757 5.29997 12.9993 5.29997V6.29997C14.5447 6.29997 15.7721 7.51598 15.7721 8.99996H16.7721Z" fill="#7800FD"/>
</svg>
