<svg width="21" height="20" viewBox="0 0 21 20" fill="none" xmlns="http://www.w3.org/2000/svg">
<path d="M9.08163 8.10382L8.86433 8.55413L9.18411 8.70845L9.43518 8.45737L9.08163 8.10382ZM15.7349 1.45059L16.0884 1.09704L15.7349 0.743483L15.3813 1.09704L15.7349 1.45059ZM18.3276 4.04331L18.6811 4.39687L19.0347 4.04331L18.6811 3.68976L18.3276 4.04331ZM17.0419 5.32896L16.6884 4.97541L16.3348 5.32896L16.6884 5.68252L17.0419 5.32896ZM19.6347 7.92169L19.9882 8.27524L20.3418 7.92169L19.9882 7.56813L19.6347 7.92169ZM17.0634 10.493L16.7098 10.8465L17.0634 11.2001L17.4169 10.8465L17.0634 10.493ZM14.4706 7.90026L14.8242 7.54671L14.4706 7.19315L14.1171 7.54671L14.4706 7.90026ZM11.6744 10.6965L11.3208 10.343L11.0697 10.5941L11.224 10.9138L11.6744 10.6965ZM8.04259 14.3287L7.68904 13.9752L7.68904 13.9752L8.04259 14.3287ZM5.44987 11.736L5.80342 12.0895L5.44987 11.736ZM9.29893 7.65351C7.07804 6.58181 4.3377 6.9552 2.50339 8.7895L3.2105 9.49661C4.73174 7.97537 7.01046 7.65954 8.86433 8.55413L9.29893 7.65351ZM15.3813 1.09704L8.72808 7.75027L9.43518 8.45737L16.0884 1.80414L15.3813 1.09704ZM18.6811 3.68976L16.0884 1.09704L15.3813 1.80414L17.974 4.39687L18.6811 3.68976ZM17.3955 5.68252L18.6811 4.39687L17.974 3.68976L16.6884 4.97541L17.3955 5.68252ZM19.9882 7.56813L17.3955 4.97541L16.6884 5.68252L19.2811 8.27524L19.9882 7.56813ZM17.4169 10.8465L19.9882 8.27524L19.2811 7.56813L16.7098 10.1394L17.4169 10.8465ZM14.1171 8.25381L16.7098 10.8465L17.4169 10.1394L14.8242 7.54671L14.1171 8.25381ZM12.0279 11.0501L14.8242 8.25381L14.1171 7.54671L11.3208 10.343L12.0279 11.0501ZM10.9887 17.2748C12.823 15.4405 13.1964 12.7001 12.1247 10.4792L11.224 10.9138C12.1186 12.7677 11.8028 15.0464 10.2816 16.5677L10.9887 17.2748ZM2.53553 17.2426C4.8735 19.5806 8.6629 19.6006 10.9887 17.2748L10.2816 16.5677C8.35184 18.4974 5.19563 18.4885 3.24264 16.5355L2.53553 17.2426ZM2.50339 8.7895C0.177622 11.1153 0.197564 14.9047 2.53553 17.2426L3.24264 16.5355C1.28965 14.5825 1.28077 11.4263 3.2105 9.49661L2.50339 8.7895ZM7.68904 13.9752C7.17996 14.4843 6.33465 14.485 5.81414 13.9645L5.10703 14.6716C6.01252 15.577 7.49102 15.5874 8.39615 14.6823L7.68904 13.9752ZM7.67833 12.1003C8.19884 12.6208 8.19813 13.4661 7.68904 13.9752L8.39615 14.6823C9.30128 13.7771 9.29092 12.2986 8.38543 11.3932L7.67833 12.1003ZM5.80342 12.0895C6.31251 11.5805 7.15782 11.5798 7.67833 12.1003L8.38543 11.3932C7.47994 10.4877 6.00144 10.4773 5.09632 11.3824L5.80342 12.0895ZM5.81414 13.9645C5.29363 13.4439 5.29434 12.5986 5.80342 12.0895L5.09632 11.3824C4.19119 12.2876 4.20154 13.7661 5.10703 14.6716L5.81414 13.9645Z" fill="#7800FD"/>
</svg>
