<svg width="61" height="55" viewBox="0 0 61 55" fill="none" xmlns="http://www.w3.org/2000/svg">
<mask id="mask0_526_1077" style="mask-type:alpha" maskUnits="userSpaceOnUse" x="0" y="0" width="61" height="55">
<rect width="61" height="55" fill="#D9D9D9"/>
</mask>
<g mask="url(#mask0_526_1077)">
<path d="M48.292 18.3333V13.7499H43.2087V9.16658H48.292V4.58325H53.3753V9.16658H58.4587V13.7499H53.3753V18.3333H48.292ZM7.62533 50.4166C6.22741 50.4166 5.03113 49.9682 4.03649 49.0714C3.04016 48.173 2.54199 47.0937 2.54199 45.8332V18.3333C2.54199 17.0728 3.04016 15.9942 4.03649 15.0974C5.03113 14.1991 6.22741 13.7499 7.62533 13.7499H15.6316L20.3337 9.16658H35.5837V13.7499H22.5576L17.9191 18.3333H7.62533V45.8332H48.292V25.2083H53.3753V45.8332C53.3753 47.0937 52.878 48.173 51.8834 49.0714C50.887 49.9682 49.6899 50.4166 48.292 50.4166H7.62533ZM27.9587 42.3957C31.1357 42.3957 33.8367 41.3935 36.0615 39.3891C38.2846 37.3831 39.3962 34.9478 39.3962 32.0833C39.3962 29.2187 38.2846 26.7834 36.0615 24.7774C33.8367 22.773 31.1357 21.7708 27.9587 21.7708C24.7816 21.7708 22.0806 22.773 19.8558 24.7774C17.6327 26.7834 16.5212 29.2187 16.5212 32.0833C16.5212 34.9478 17.6327 37.3831 19.8558 39.3891C22.0806 41.3935 24.7816 42.3957 27.9587 42.3957ZM27.9587 37.8124C26.1795 37.8124 24.6757 37.2586 23.4472 36.151C22.2187 35.0433 21.6045 33.6874 21.6045 32.0833C21.6045 30.4791 22.2187 29.1232 23.4472 28.0155C24.6757 26.9079 26.1795 26.3541 27.9587 26.3541C29.7378 26.3541 31.2416 26.9079 32.4701 28.0155C33.6986 29.1232 34.3128 30.4791 34.3128 32.0833C34.3128 33.6874 33.6986 35.0433 32.4701 36.151C31.2416 37.2586 29.7378 37.8124 27.9587 37.8124Z" fill="#1C1B1F"/>
</g>
</svg>
