<svg width="22" height="23" viewBox="0 0 22 23" fill="none" xmlns="http://www.w3.org/2000/svg">
<path d="M2.33317 22.75C1.73734 22.75 1.22745 22.5299 0.803504 22.0896C0.378837 21.6486 0.166504 21.1187 0.166504 20.5V8.125C0.166504 7.50625 0.378837 6.97638 0.803504 6.53537C1.22745 6.09512 1.73734 5.875 2.33317 5.875H7.74984V2.5C7.74984 1.88125 7.96217 1.35137 8.38684 0.910375C8.81078 0.470125 9.32067 0.25 9.9165 0.25H12.0832C12.679 0.25 13.1893 0.470125 13.6139 0.910375C14.0379 1.35137 14.2498 1.88125 14.2498 2.5V5.875H19.6665C20.2623 5.875 20.7726 6.09512 21.1973 6.53537C21.6212 6.97638 21.8332 7.50625 21.8332 8.125V20.5C21.8332 21.1187 21.6212 21.6486 21.1973 22.0896C20.7726 22.5299 20.2623 22.75 19.6665 22.75H2.33317ZM2.33317 20.5H19.6665V8.125H14.2498C14.2498 8.74375 14.0379 9.27325 13.6139 9.7135C13.1893 10.1545 12.679 10.375 12.0832 10.375H9.9165C9.32067 10.375 8.81078 10.1545 8.38684 9.7135C7.96217 9.27325 7.74984 8.74375 7.74984 8.125H2.33317V20.5ZM4.49984 18.25H10.9998V17.7437C10.9998 17.425 10.9139 17.1295 10.742 16.8572C10.5708 16.5857 10.3318 16.375 10.0248 16.225C9.66373 16.0563 9.29828 15.9299 8.9285 15.8459C8.558 15.7611 8.16511 15.7188 7.74984 15.7188C7.33456 15.7188 6.94203 15.7611 6.57225 15.8459C6.20175 15.9299 5.83595 16.0563 5.47484 16.225C5.16789 16.375 4.92884 16.5857 4.75767 16.8572C4.58578 17.1295 4.49984 17.425 4.49984 17.7437V18.25ZM13.1665 16.5625H17.4998V14.875H13.1665V16.5625ZM7.74984 14.875C8.20123 14.875 8.58473 14.7108 8.90034 14.3822C9.21667 14.0545 9.37484 13.6562 9.37484 13.1875C9.37484 12.7188 9.21667 12.3205 8.90034 11.9928C8.58473 11.6642 8.20123 11.5 7.74984 11.5C7.29845 11.5 6.91495 11.6642 6.59934 11.9928C6.283 12.3205 6.12484 12.7188 6.12484 13.1875C6.12484 13.6562 6.283 14.0545 6.59934 14.3822C6.91495 14.7108 7.29845 14.875 7.74984 14.875ZM13.1665 13.1875H17.4998V11.5H13.1665V13.1875ZM9.9165 8.125H12.0832V2.5H9.9165V8.125Z" fill="#1C1B1F"/>
</svg>
