<svg width="24" height="24" viewBox="0 0 24 24" fill="none" xmlns="http://www.w3.org/2000/svg">
<mask id="mask0_522_823" style="mask-type:alpha" maskUnits="userSpaceOnUse" x="0" y="0" width="24" height="24">
<rect width="24" height="24" fill="#D9D9D9"/>
</mask>
<g mask="url(#mask0_522_823)">
<path d="M3.24995 9.6499C3.13329 9.56657 3.06262 9.46224 3.03795 9.3369C3.01262 9.21224 3.04995 9.08324 3.14995 8.9499C4.18329 7.53324 5.47895 6.43324 7.03695 5.6499C8.59562 4.86657 10.2583 4.4749 12.025 4.4749C13.7916 4.4749 15.4583 4.8539 17.025 5.6119C18.5916 6.37057 19.9 7.46657 20.95 8.8999C21.0666 9.0499 21.104 9.18324 21.062 9.2999C21.0206 9.41657 20.95 9.51657 20.85 9.5999C20.75 9.68324 20.6333 9.72057 20.5 9.7119C20.3666 9.7039 20.25 9.63324 20.15 9.4999C19.2333 8.1999 18.0543 7.2039 16.613 6.5119C15.171 5.82057 13.6416 5.4749 12.025 5.4749C10.4083 5.4749 8.89162 5.82057 7.47495 6.5119C6.05829 7.2039 4.88329 8.1999 3.94995 9.4999C3.84995 9.6499 3.73329 9.73324 3.59995 9.7499C3.46662 9.76657 3.34995 9.73324 3.24995 9.6499ZM14.85 21.9749C13.1166 21.5416 11.7 20.6789 10.6 19.3869C9.49995 18.0956 8.94995 16.5166 8.94995 14.6499C8.94995 13.8166 9.24995 13.1166 9.84995 12.5499C10.45 11.9832 11.175 11.6999 12.025 11.6999C12.875 11.6999 13.6 11.9832 14.2 12.5499C14.8 13.1166 15.1 13.8166 15.1 14.6499C15.1 15.1999 15.3083 15.6626 15.725 16.0379C16.1416 16.4126 16.6333 16.5999 17.2 16.5999C17.7666 16.5999 18.25 16.4126 18.65 16.0379C19.05 15.6626 19.25 15.1999 19.25 14.6499C19.25 12.7166 18.5416 11.0916 17.125 9.7749C15.7083 8.45824 14.0166 7.7999 12.05 7.7999C10.0833 7.7999 8.39162 8.45824 6.97495 9.7749C5.55829 11.0916 4.84995 12.7082 4.84995 14.6249C4.84995 15.0249 4.88762 15.5249 4.96295 16.1249C5.03762 16.7249 5.21662 17.4249 5.49995 18.2249C5.54995 18.3749 5.54595 18.5082 5.48795 18.6249C5.42929 18.7416 5.33329 18.8249 5.19995 18.8749C5.06662 18.9249 4.93729 18.9206 4.81195 18.8619C4.68729 18.8039 4.59995 18.7082 4.54995 18.5749C4.29995 17.9249 4.12095 17.2789 4.01295 16.6369C3.90429 15.9956 3.84995 15.3332 3.84995 14.6499C3.84995 12.4332 4.65429 10.5749 6.26295 9.0749C7.87095 7.5749 9.79162 6.8249 12.025 6.8249C14.275 6.8249 16.2083 7.5749 17.825 9.0749C19.4416 10.5749 20.25 12.4332 20.25 14.6499C20.25 15.4832 19.9543 16.1792 19.363 16.7379C18.771 17.2959 18.05 17.5749 17.2 17.5749C16.35 17.5749 15.621 17.2959 15.013 16.7379C14.4043 16.1792 14.1 15.4832 14.1 14.6499C14.1 14.0999 13.896 13.6372 13.488 13.2619C13.0793 12.8872 12.5916 12.6999 12.025 12.6999C11.4583 12.6999 10.9706 12.8872 10.562 13.2619C10.154 13.6372 9.94995 14.0999 9.94995 14.6499C9.94995 16.2666 10.4293 17.6166 11.388 18.6999C12.346 19.7832 13.5833 20.5416 15.1 20.9749C15.25 21.0249 15.35 21.1082 15.4 21.2249C15.45 21.3416 15.4583 21.4666 15.425 21.5999C15.3916 21.7166 15.325 21.8166 15.225 21.8999C15.125 21.9832 15 22.0082 14.85 21.9749ZM6.49995 4.4249C6.36662 4.50824 6.23329 4.5289 6.09995 4.4869C5.96662 4.44557 5.86662 4.35824 5.79995 4.2249C5.73329 4.09157 5.71662 3.97057 5.74995 3.8619C5.78329 3.7539 5.86662 3.65824 5.99995 3.5749C6.93329 3.0749 7.90829 2.69157 8.92495 2.4249C9.94162 2.15824 10.975 2.0249 12.025 2.0249C13.0916 2.0249 14.1333 2.1539 15.15 2.4119C16.1666 2.67057 17.15 3.04157 18.1 3.5249C18.25 3.60824 18.3376 3.70824 18.363 3.8249C18.3876 3.94157 18.375 4.05824 18.325 4.1749C18.275 4.29157 18.1916 4.38324 18.075 4.4499C17.9583 4.51657 17.8166 4.50824 17.65 4.4249C16.7666 3.9749 15.854 3.6289 14.912 3.3869C13.9706 3.14557 13.0083 3.0249 12.025 3.0249C11.0583 3.0249 10.1083 3.13724 9.17495 3.3619C8.24162 3.58724 7.34995 3.94157 6.49995 4.4249ZM9.44995 21.6249C8.46662 20.5916 7.71262 19.5372 7.18795 18.4619C6.66262 17.3872 6.39995 16.1166 6.39995 14.6499C6.39995 13.1332 6.94995 11.8539 8.04995 10.8119C9.14995 9.77057 10.475 9.2499 12.025 9.2499C13.575 9.2499 14.9083 9.77057 16.025 10.8119C17.1416 11.8539 17.7 13.1332 17.7 14.6499C17.7 14.7999 17.654 14.9206 17.562 15.0119C17.4706 15.1039 17.35 15.1499 17.2 15.1499C17.0666 15.1499 16.95 15.1039 16.85 15.0119C16.75 14.9206 16.7 14.7999 16.7 14.6499C16.7 13.3999 16.2373 12.3539 15.312 11.5119C14.3873 10.6706 13.2916 10.2499 12.025 10.2499C10.7583 10.2499 9.67062 10.6706 8.76195 11.5119C7.85395 12.3539 7.39995 13.3999 7.39995 14.6499C7.39995 15.9999 7.63329 17.1456 8.09995 18.0869C8.56662 19.0289 9.24995 19.9749 10.15 20.9249C10.25 21.0249 10.3 21.1416 10.3 21.2749C10.3 21.4082 10.25 21.5249 10.15 21.6249C10.05 21.7249 9.93329 21.7749 9.79995 21.7749C9.66662 21.7749 9.54995 21.7249 9.44995 21.6249ZM17 19.9249C15.5166 19.9249 14.229 19.4249 13.137 18.4249C12.0456 17.4249 11.5 16.1666 11.5 14.6499C11.5 14.5166 11.5456 14.3999 11.637 14.2999C11.729 14.1999 11.85 14.1499 12 14.1499C12.15 14.1499 12.271 14.1999 12.363 14.2999C12.4543 14.3999 12.5 14.5166 12.5 14.6499C12.5 15.8999 12.95 16.9249 13.85 17.7249C14.75 18.5249 15.8 18.9249 17 18.9249C17.1 18.9249 17.2416 18.9166 17.425 18.8999C17.6083 18.8832 17.8 18.8582 18 18.8249C18.15 18.7916 18.2793 18.8122 18.388 18.8869C18.496 18.9622 18.5666 19.0749 18.6 19.2249C18.6333 19.3582 18.6083 19.4749 18.525 19.5749C18.4416 19.6749 18.3333 19.7416 18.2 19.7749C17.9 19.8582 17.6376 19.9042 17.413 19.9129C17.1876 19.9209 17.05 19.9249 17 19.9249Z" fill="white"/>
</g>
</svg>
