<svg width="16" height="20" viewBox="0 0 16 20" fill="none" xmlns="http://www.w3.org/2000/svg">
<path d="M7.45 15C7.75 15 8.046 14.9623 8.338 14.887C8.62933 14.8123 8.9 14.7 9.15 14.55L11.6 17L13 15.6L10.55 13.15C10.7 12.9 10.8123 12.629 10.887 12.337C10.9623 12.0457 11 11.75 11 11.45C11 10.4833 10.6583 9.66667 9.975 9C9.29167 8.33333 8.46667 8 7.5 8C6.53333 8 5.70833 8.34167 5.025 9.025C4.34167 9.70833 4 10.5333 4 11.5C4 12.4667 4.33333 13.2917 5 13.975C5.66667 14.6583 6.48333 15 7.45 15ZM7.5 13C7.08333 13 6.72933 12.854 6.438 12.562C6.146 12.2707 6 11.9167 6 11.5C6 11.0833 6.146 10.7293 6.438 10.438C6.72933 10.146 7.08333 10 7.5 10C7.91667 10 8.27067 10.146 8.562 10.438C8.854 10.7293 9 11.0833 9 11.5C9 11.9167 8.854 12.2707 8.562 12.562C8.27067 12.854 7.91667 13 7.5 13ZM2 20C1.45 20 0.979333 19.8043 0.588 19.413C0.196 19.021 0 18.55 0 18V2C0 1.45 0.196 0.979 0.588 0.587C0.979333 0.195667 1.45 0 2 0H10L16 6V18C16 18.55 15.8043 19.021 15.413 19.413C15.021 19.8043 14.55 20 14 20H2ZM9 7V2H2V18H14V7H9Z" fill="#4500FF"/>
</svg>
